<?xml version="1.0" encoding="utf-8"?>
<!-- Generator: Adobe Illustrator 19.0.1, SVG Export Plug-In . SVG Version: 6.00 Build 0)  -->
<svg version="1.1" xmlns="http://www.w3.org/2000/svg" xmlns:xlink="http://www.w3.org/1999/xlink" x="0px" y="0px"
	 viewBox="0 0 512 512" style="enable-background:new 0 0 512 512;" xml:space="preserve">
<style type="text/css">
	.st0{fill:#244298;}
	.st1{fill:#2AACE0;}
	.st2{fill:#41B44D;}
	.st3{fill:#FFDB34;}
	.st4{fill:#F4912C;}
	.st5{fill:#EB383B;}
	.st6{fill:#E8008C;}
	.st7{fill:#7017C6;}
</style>
<g id="Layer_1">
	<path class="st0" d="M362.5,327c2-3.3,3.5-5.7,4.5-7l110.5-192c23,39.7,34.5,82.3,34.5,128c0,9.3-0.7,19.8-2,31.5L362.5,327z"/>
	<path class="st1" d="M381.5,231l-2-8l-57-214c55,14.7,100,44.5,135,89.5L381.5,231z"/>
	<path class="st2" d="M327,149.5c-3.7-2.3-6-3.8-7-4.5L128,34.5C167.7,11.5,210.3,0,256,0c9.3,0,19.8,0.7,31.5,2L327,149.5z"/>
	<path class="st3" d="M231,130.5l-8,2l-214,57c14.7-55,44.5-100,89.5-135L231,130.5z"/>
	<path class="st4" d="M149.5,185c-2.3,3.7-3.8,6-4.5,7L34.5,384C11.5,344.3,0,301.7,0,256c0-9.3,0.7-19.8,2-31.5L149.5,185z"/>
	<path class="st5" d="M130.5,281c1,4.3,1.7,7,2,8l57,214c-55-14.7-100-44.5-135-89.5L130.5,281z"/>
	<path class="st6" d="M185,362.5c3.7,2.3,6,3.8,7,4.5l192,110.5c-39.7,23-82.3,34.5-128,34.5c-9.3,0-19.8-0.7-31.5-2L185,362.5z"/>
	<g>
		<path class="st7" d="M281,381.5c4.7-1,7.3-1.7,8-2l214-57c-14.7,55-44.5,100-89.5,135L281,381.5z"/>
	</g>
</g>
<g id="Layer_2">
	<g>
		<path class="st0" d="M208.2,334.9c-0.2-0.1-0.2-0.1-0.2-0.1c-35.7-20.5-47.7-54-33.8-86.3l37.3,21.5c-3.3,12.8,1,24.9,14.8,32.9
			c15,8.7,30.8,5.2,38.3-7.9c7.2-12.4,2.2-27.2-14.9-37L200,229.2l50.3-87.3l105.6,60.8l-19.5,33.8l-69-39.7l-12.9,21.9l19.7,11.4
			c35.9,20.7,44.2,55.1,27,85C282.6,347.4,244.6,355.8,208.2,334.9z"/>
	</g>
</g>
</svg>
